<svg xmlns="http://www.w3.org/2000/svg" x="0px" y="0px"
width="30" height="30"
viewBox="0 0 172 172"
style=" fill:#000000;"><g fill="none" fill-rule="nonzero" stroke="none" stroke-width="1" stroke-linecap="butt" stroke-linejoin="miter" stroke-miterlimit="10" stroke-dasharray="" stroke-dashoffset="0" font-family="none" font-weight="none" font-size="none" text-anchor="none" style="mix-blend-mode: normal"><path d="M0,172v-172h172v172z" fill="none"></path><g><path d="M71.66667,129h57.33333l21.5,21.5v-78.83333c0,-7.91558 -6.41775,-14.33333 -14.33333,-14.33333h-64.5c-7.91558,0 -14.33333,6.41775 -14.33333,14.33333v43c0,7.91558 6.41775,14.33333 14.33333,14.33333" fill="#ecf0f1"></path><path d="M103.91667,93.16667h-60.91667l-21.5,21.5v-78.83333c0,-7.91558 6.41775,-14.33333 14.33333,-14.33333h68.08333c7.91558,0 14.33333,6.41775 14.33333,14.33333v43c0,7.91558 -6.41775,14.33333 -14.33333,14.33333" fill="#ffffff"></path></g></g></svg>