<svg xmlns="http://www.w3.org/2000/svg" x="0px" y="0px"
width="64" height="64"
viewBox="0 0 172 172"
style=" fill:#000000;"><g fill="none" fill-rule="nonzero" stroke="none" stroke-width="none" stroke-linecap="none" stroke-linejoin="none" stroke-miterlimit="10" stroke-dasharray="" stroke-dashoffset="0" font-family="none" font-weight="none" font-size="none" text-anchor="none" style="mix-blend-mode: normal"><path d="M0,172v-172h172v172z" fill="none" stroke="none" stroke-width="1" stroke-linecap="butt" stroke-linejoin="miter"></path><g><path d="M147.8125,136.89319c5.73513,-0.01344 10.85481,-3.67381 12.70919,-9.07031c1.88394,-5.4825 0.00269,-11.61 -4.64669,-15.11719c6.26188,-1.40825 10.75,-7.01706 10.75,-13.4375c0,-6.42044 -4.48812,-12.02925 -10.75,-13.4375c0.90031,-0.88419 6.69994,-6.84238 5.375,-13.4375c-1.20937,-6.01731 -6.78325,-10.61563 -13.4375,-10.75h-38.13025c1.77375,-8.30437 4.80794,-29.54638 -6.21619,-44.634c-2.76275,-3.784 -5.40456,-9.74756 -12.09106,-8.94669c-5.43681,0.65038 -9.83088,6.40162 -10.75,8.0625l0.41925,24.1875c0,5.13581 -6.71875,24.77606 -13.85675,32.08338c-1.96456,2.01025 -7.31269,5.06594 -16.125,5.375v61.8125c0.66112,2.88906 1.849,7.224 5.375,10.75c8.0625,8.0625 26.875,8.0625 29.5625,8.0625h40.3125c15.00431,0 22.54275,-4.80525 23.96444,-11.87069c0.23381,-1.16638 0.72562,-4.76225 -2.46444,-9.632z" fill="#faefde" stroke="none" stroke-width="1" stroke-linecap="butt" stroke-linejoin="miter"></path><path d="M57.78125,83.9575c8.5785,-1.59638 12.9215,-5.38038 14.2115,-6.69994c7.2885,-6.82356 15.23275,-24.29231 15.23275,-36.77844v-23.46994" fill="none" stroke="#fff7f0" stroke-width="13.4375" stroke-linecap="round" stroke-linejoin="miter"></path><path d="M18.8125,69.875h24.1875c4.45319,0 8.0625,3.13362 8.0625,7.00094v74.68294c0,3.86731 -3.60931,7.00363 -8.0625,7.00363h-24.1875c-5.93669,0 -10.75,-4.17906 -10.75,-9.33638v-70.01744c0,-5.15462 4.81331,-9.33369 10.75,-9.33369z" fill="#85cbf8" stroke="none" stroke-width="1" stroke-linecap="butt" stroke-linejoin="miter"></path><path d="M14.78125,69.875c3.70606,0 6.71875,3.01269 6.71875,6.71875v75.25c0,3.70337 -3.01269,6.71875 -6.71875,6.71875c-3.70606,0 -6.71875,-3.01538 -6.71875,-6.71875v-75.25c0,-3.70606 3.01269,-6.71875 6.71875,-6.71875z" fill="#9fddff" stroke="none" stroke-width="1" stroke-linecap="butt" stroke-linejoin="miter"></path><path d="M24.1875,77.9375h-5.375c-1.48081,0 -2.6875,1.20669 -2.6875,2.6875c0,1.48081 1.20669,2.6875 2.6875,2.6875h5.375c1.48081,0 2.6875,-1.20669 2.6875,-2.6875c0,-1.48081 -1.20669,-2.6875 -2.6875,-2.6875zM24.1875,91.375h-5.375c-1.48081,0 -2.6875,1.20669 -2.6875,2.6875c0,1.48081 1.20669,2.6875 2.6875,2.6875h5.375c1.48081,0 2.6875,-1.20669 2.6875,-2.6875c0,-1.48081 -1.20669,-2.6875 -2.6875,-2.6875zM24.1875,104.8125h-5.375c-1.48081,0 -2.6875,1.20669 -2.6875,2.6875c0,1.48081 1.20669,2.6875 2.6875,2.6875h5.375c1.48081,0 2.6875,-1.20669 2.6875,-2.6875c0,-1.48081 -1.20669,-2.6875 -2.6875,-2.6875zM24.1875,118.25h-5.375c-1.48081,0 -2.6875,1.20669 -2.6875,2.6875c0,1.48081 1.20669,2.6875 2.6875,2.6875h5.375c1.48081,0 2.6875,-1.20669 2.6875,-2.6875c0,-1.48081 -1.20669,-2.6875 -2.6875,-2.6875zM24.1875,131.6875h-5.375c-1.48081,0 -2.6875,1.20669 -2.6875,2.6875c0,1.48081 1.20669,2.6875 2.6875,2.6875h5.375c1.48081,0 2.6875,-1.20669 2.6875,-2.6875c0,-1.48081 -1.20669,-2.6875 -2.6875,-2.6875zM24.1875,145.125h-5.375c-1.48081,0 -2.6875,1.20669 -2.6875,2.6875c0,1.48081 1.20669,2.6875 2.6875,2.6875h5.375c1.48081,0 2.6875,-1.20669 2.6875,-2.6875c0,-1.48081 -1.20669,-2.6875 -2.6875,-2.6875z" fill="#8d6c9f" stroke="none" stroke-width="1" stroke-linecap="butt" stroke-linejoin="miter"></path><path d="M137.0625,158.5625h-67.1875l-8.0625,-5.375l-8.0625,-8.0625h96.75l-5.375,8.0625z" fill="#efd8be" stroke="none" stroke-width="1" stroke-linecap="butt" stroke-linejoin="miter"></path><path d="M147.8125,137.0625c5.73513,-0.01344 10.85481,-3.67381 12.70919,-9.07031c1.88394,-5.4825 0.00538,-11.61 -4.64669,-15.11719c6.26188,-1.40825 10.75,-7.01706 10.75,-13.4375c0,-6.42044 -4.48812,-12.02925 -10.75,-13.4375c0.90031,-0.88419 6.69994,-6.84238 5.375,-13.4375c-1.20937,-6.01731 -6.78325,-10.61563 -13.4375,-10.75h-39.37456c1.40825,-7.06006 5.504,-31.42225 -7.32881,-45.91056c-2.69825,-3.05031 -6.20544,-7.83944 -12.53988,-7.83944c-6.69188,0 -7.912,5.41531 -7.94425,8.22913v24.1875c0,7.89587 -6.2995,24.77606 -13.4375,32.08337c-1.96456,2.01025 -7.31269,5.06594 -16.125,5.375v67.1875c1.806,2.22794 4.15219,4.7085 7.29656,6.84238c9.79325,6.64619 22.30894,6.59512 27.64094,6.59512h40.3125c15.00431,0 22.54275,-4.80525 23.96444,-11.87069c0.23381,-1.16369 0.72562,-4.76225 -2.46444,-9.62931z" fill="none" stroke="#8d6c9f" stroke-width="5.375" stroke-linecap="butt" stroke-linejoin="round"></path><path d="M13.4375,158.5625h32.25c2.96969,0 5.375,-2.40531 5.375,-5.375v-77.9375c0,-2.96969 -2.40531,-5.375 -5.375,-5.375h-32.25c-2.96969,0 -5.375,2.40531 -5.375,5.375v77.9375c0,2.967 2.40531,5.375 5.375,5.375z" fill="none" stroke="#8d6c9f" stroke-width="5.375" stroke-linecap="butt" stroke-linejoin="miter"></path></g></g></svg>